<svg width="30" height="26" viewBox="0 0 30 26" fill="none" xmlns="http://www.w3.org/2000/svg">
<path d="M28.7178 2.95307L20.0508 0.101501H19.9497C19.8824 0.0948303 19.8147 0.0948303 19.7475 0.101501H19.4152H19.2274H19.1263L10.9216 2.88179L2.7168 0.101501C2.49957 0.0307981 2.26844 0.0120258 2.04242 0.0467288C1.8164 0.0814317 1.60196 0.168618 1.41675 0.301111C1.23006 0.432307 1.07768 0.605464 0.972187 0.806277C0.866694 1.00709 0.811123 1.2298 0.810063 1.456V21.417C0.809282 21.7159 0.903694 22.0075 1.07996 22.2506C1.25622 22.4936 1.50542 22.6759 1.79232 22.7715L10.4593 25.6231C10.7503 25.7167 11.0639 25.7167 11.3549 25.6231L19.5886 22.9141L27.7933 25.6944C27.9467 25.7149 28.1022 25.7149 28.2556 25.6944C28.5576 25.6986 28.8524 25.6032 29.0934 25.4235C29.2801 25.2923 29.4324 25.1191 29.5379 24.9183C29.6434 24.7175 29.699 24.4948 29.7001 24.2686V4.30757C29.7008 4.00867 29.6064 3.71707 29.4302 3.47402C29.2539 3.23096 29.0047 3.04872 28.7178 2.95307ZM9.47706 22.2867L3.69906 20.3904V3.43784L9.47706 5.33414V22.2867ZM18.1441 20.3904L12.3661 22.2867V5.33414L18.1441 3.43784V20.3904ZM26.8111 22.2867L21.0331 20.3904V3.43784L26.8111 5.33414V22.2867Z" fill="#E7E7E7"/>
</svg>
