<svg width="25" height="24" viewBox="0 0 25 24" fill="none" xmlns="http://www.w3.org/2000/svg">
<path d="M17.1006 12.8446C18.2603 11.9373 19.1067 10.693 19.5221 9.285C19.9376 7.87697 19.9014 6.37516 19.4187 4.98851C18.936 3.60187 18.0306 2.39934 16.8287 1.54823C15.6267 0.697117 14.1879 0.239746 12.7124 0.239746C11.2369 0.239746 9.7981 0.697117 8.59615 1.54823C7.39419 2.39934 6.48887 3.60187 6.00612 4.98851C5.52338 6.37516 5.48723 7.87697 5.90269 9.285C6.31815 10.693 7.16457 11.9373 8.32418 12.8446C6.33715 13.6363 4.6034 14.9495 3.30775 16.644C2.01211 18.3386 1.20314 20.3511 0.967095 22.4669C0.950009 22.6214 0.963685 22.7777 1.00734 22.9269C1.051 23.0762 1.12378 23.2154 1.22153 23.3366C1.41895 23.5815 1.7061 23.7383 2.0198 23.7726C2.3335 23.807 2.64806 23.7159 2.89428 23.5196C3.1405 23.3233 3.29821 23.0377 3.33272 22.7257C3.59245 20.4262 4.69495 18.3025 6.42958 16.7603C8.16421 15.2182 10.4094 14.3656 12.7361 14.3656C15.0628 14.3656 17.3079 15.2182 19.0426 16.7603C20.7772 18.3025 21.8797 20.4262 22.1394 22.7257C22.1716 23.0148 22.3103 23.2817 22.5287 23.4751C22.7471 23.6684 23.0298 23.7744 23.3222 23.7726H23.4523C23.7624 23.7372 24.0458 23.5813 24.2408 23.3389C24.4357 23.0965 24.5265 22.7873 24.4932 22.4787C24.2561 20.3568 23.4427 18.3392 22.1404 16.642C20.8381 14.9448 19.0959 13.6321 17.1006 12.8446ZM12.7124 12.0094C11.7767 12.0094 10.8619 11.7335 10.0839 11.2164C9.30583 10.6994 8.69941 9.96456 8.34131 9.10478C7.98322 8.245 7.88952 7.29892 8.07208 6.38619C8.25463 5.47345 8.70524 4.63505 9.36692 3.977C10.0286 3.31895 10.8716 2.87082 11.7894 2.68927C12.7072 2.50771 13.6585 2.60089 14.523 2.95702C15.3875 3.31316 16.1264 3.91624 16.6463 4.69002C17.1662 5.4638 17.4437 6.37352 17.4437 7.30414C17.4437 8.55206 16.9452 9.74887 16.0579 10.6313C15.1706 11.5137 13.9672 12.0094 12.7124 12.0094Z" fill="white"/>
</svg>
