<svg width="28" height="25" viewBox="0 0 28 25" fill="none" xmlns="http://www.w3.org/2000/svg">
<path d="M24.8713 2.70671C23.4531 1.23215 21.5732 0.332161 19.5712 0.169317C17.5692 0.0064726 15.577 0.59151 13.9545 1.81875C12.2523 0.505726 10.1336 -0.0896613 8.02509 0.152483C5.91656 0.394628 3.97481 1.45632 2.59086 3.12375C1.20691 4.79119 0.483556 6.94052 0.566474 9.13891C0.649392 11.3373 1.53242 13.4215 3.03773 14.9717L11.3457 23.6016C12.0414 24.3116 12.9784 24.7096 13.9545 24.7096C14.9306 24.7096 15.8676 24.3116 16.5633 23.6016L24.8713 14.9717C26.4333 13.3418 27.3101 11.1372 27.3101 8.8392C27.3101 6.54122 26.4333 4.33659 24.8713 2.70671ZM22.9849 13.057L14.6769 21.673C14.5824 21.772 14.4699 21.8506 14.3459 21.9043C14.2219 21.9579 14.0889 21.9855 13.9545 21.9855C13.8202 21.9855 13.6871 21.9579 13.5631 21.9043C13.4391 21.8506 13.3266 21.772 13.2321 21.673L4.92409 13.0154C3.8749 11.9032 3.28739 10.409 3.28739 8.85308C3.28739 7.29711 3.8749 5.803 4.92409 4.69075C5.99323 3.59604 7.43517 2.98221 8.93761 2.98221C10.44 2.98221 11.882 3.59604 12.9511 4.69075C13.0755 4.8208 13.2235 4.92401 13.3865 4.99445C13.5495 5.06489 13.7244 5.10115 13.901 5.10115C14.0776 5.10115 14.2525 5.06489 14.4155 4.99445C14.5785 4.92401 14.7265 4.8208 14.8509 4.69075C15.92 3.59604 17.3619 2.98221 18.8644 2.98221C20.3668 2.98221 21.8088 3.59604 22.8779 4.69075C23.9415 5.78843 24.5483 7.27443 24.5683 8.83044C24.5883 10.3865 24.0199 11.8887 22.9849 13.0154V13.057Z" fill="#FF4655"/>
</svg>
