<svg width="27" height="30" viewBox="0 0 27 30" fill="none" xmlns="http://www.w3.org/2000/svg">
<path d="M25.5038 9.51099L16.5872 1.92201C15.7698 1.21223 14.7117 0.819824 13.615 0.819824C12.5184 0.819824 11.4602 1.21223 10.6428 1.92201L1.72623 9.51099C1.2542 9.92085 0.87752 10.4236 0.621274 10.9859C0.365029 11.5481 0.235097 12.1569 0.240131 12.7717V25.3815C0.240131 26.5294 0.709844 27.6304 1.54594 28.4421C2.38203 29.2538 3.51602 29.7098 4.69843 29.7098H22.5316C23.7141 29.7098 24.848 29.2538 25.6841 28.4421C26.5202 27.6304 26.9899 26.5294 26.9899 25.3815V12.7572C26.9929 12.1449 26.8619 11.5389 26.6057 10.9793C26.3496 10.4197 25.974 9.91924 25.5038 9.51099ZM16.5872 26.8243H10.6428V19.6104C10.6428 19.2278 10.7994 18.8608 11.0781 18.5902C11.3568 18.3196 11.7348 18.1676 12.1289 18.1676H15.1011C15.4953 18.1676 15.8733 18.3196 16.152 18.5902C16.4307 18.8608 16.5872 19.2278 16.5872 19.6104V26.8243ZM24.0177 25.3815C24.0177 25.7642 23.8612 26.1311 23.5825 26.4017C23.3038 26.6723 22.9258 26.8243 22.5316 26.8243H19.5594V19.6104C19.5594 18.4625 19.0897 17.3615 18.2536 16.5498C17.4175 15.7381 16.2836 15.2821 15.1011 15.2821H12.1289C10.9465 15.2821 9.81253 15.7381 8.97644 16.5498C8.14035 17.3615 7.67063 18.4625 7.67063 19.6104V26.8243H4.69843C4.30429 26.8243 3.9263 26.6723 3.6476 26.4017C3.3689 26.1311 3.21233 25.7642 3.21233 25.3815V12.7572C3.2126 12.5524 3.2578 12.3499 3.34492 12.1634C3.43204 11.9768 3.55909 11.8104 3.71761 11.6752L12.6342 4.10059C12.9054 3.86929 13.254 3.74173 13.615 3.74173C13.976 3.74173 14.3247 3.86929 14.5959 4.10059L23.5125 11.6752C23.671 11.8104 23.798 11.9768 23.8852 12.1634C23.9723 12.3499 24.0175 12.5524 24.0177 12.7572V25.3815Z" fill="white"/>
</svg>
