<svg width="20" height="20" viewBox="0 0 20 20" fill="none" xmlns="http://www.w3.org/2000/svg">
<path d="M11.8707 0.415349C12.4987 -0.000651032 13.5627 -0.297651 14.3657 0.505349L19.0127 5.15335C19.8187 5.95735 19.5207 7.02135 19.1037 7.64835C18.8779 7.98833 18.5841 8.27776 18.2407 8.49835C17.9067 8.71135 17.4847 8.87235 17.0297 8.84835C16.8096 8.83276 16.5901 8.80907 16.3717 8.77735L16.3037 8.76735C16.0691 8.73372 15.8332 8.70936 15.5967 8.69435C15.0927 8.66935 14.8987 8.75435 14.8367 8.81435L12.3467 11.3053C12.2667 11.3853 12.1667 11.5633 12.0907 11.9053C12.0177 12.2353 11.9857 12.6413 11.9777 13.0913C11.9707 13.5233 11.9857 13.9653 12.0017 14.3913L12.0027 14.4383C12.0177 14.8613 12.0327 15.2933 12.0117 15.6323C11.9467 16.6633 11.1437 17.4223 10.3537 17.7733C9.56371 18.1233 8.43671 18.2103 7.65371 17.4263L5.40371 15.1763L1.29871 19.2813C1.23005 19.355 1.14725 19.4141 1.05525 19.4551C0.963247 19.4961 0.863934 19.5182 0.763231 19.5199C0.662528 19.5217 0.562499 19.5032 0.469111 19.4655C0.375723 19.4277 0.290889 19.3716 0.21967 19.3004C0.148451 19.2292 0.0923066 19.1443 0.0545856 19.0509C0.0168646 18.9576 -0.00166006 18.8575 0.000116721 18.7568C0.00189351 18.6561 0.0239355 18.5568 0.0649275 18.4648C0.105919 18.3728 0.165022 18.29 0.238708 18.2213L4.34271 14.1163L2.09271 11.8663C1.30971 11.0823 1.39571 9.95635 1.74671 9.16635C2.09671 8.37635 2.85671 7.57335 3.88671 7.50835C4.22671 7.48735 4.65871 7.50235 5.08171 7.51735L5.12871 7.51835C5.55471 7.53335 5.99671 7.54935 6.42871 7.54235C6.87871 7.53435 7.28471 7.50235 7.61471 7.42935C7.95671 7.35335 8.13471 7.25235 8.21471 7.17235L10.7047 4.68235C10.7657 4.62135 10.8507 4.42635 10.8247 3.92235C10.8097 3.68581 10.7853 3.44996 10.7517 3.21535L10.7427 3.14735C10.711 2.92896 10.6873 2.70948 10.6717 2.48935C10.6467 2.03435 10.8077 1.61235 11.0197 1.27835C11.2357 0.938349 11.5347 0.638349 11.8707 0.415349Z" fill="white"/>
</svg>
